<?xml version="1.0" encoding="UTF-8" standalone="no"?>
<!DOCTYPE svg PUBLIC "-//W3C//DTD SVG 1.1//EN" "http://www.w3.org/Graphics/SVG/1.1/DTD/svg11.dtd">
<svg width="100%" height="100%" viewBox="0 0 1080 1080" version="1.1" xmlns="http://www.w3.org/2000/svg" xmlns:xlink="http://www.w3.org/1999/xlink" xml:space="preserve" xmlns:serif="http://www.serif.com/" style="fill-rule:evenodd;clip-rule:evenodd;stroke-linecap:round;stroke-linejoin:round;stroke-miterlimit:1.5;">
    <path d="M797.396,763.094C727.812,821.682 637.998,857 540,857C440.766,857 349.923,820.786 280,760.882L280,153.118C349.923,93.214 440.766,57 540,57C760.766,57 940,236.234 940,457C940,518.351 926.158,576.494 901.417,628.5C876.66,576.477 841.002,530.63 797.395,493.908C799.112,481.849 800,469.527 800,457C800,313.502 683.498,197 540,197C396.502,197 280,313.502 280,457C280,600.498 396.502,717 540,717C617.819,717 687.699,682.738 735.354,628.5C767.914,665.548 790.113,711.932 797.396,763.094Z" style="fill:white;stroke:black;stroke-width:60px;"/>
    <g transform="matrix(0.636364,0,0,1.14855,57.2727,-11.9129)">
        <path d="M350,60L130,91.5L130,900L350,868.5L350,60Z" style="fill:white;stroke:black;stroke-width:64.62px;"/>
    </g>
    <path d="M282.605,493.906C352.177,435.322 441.996,400 540,400C637.998,400 727.812,435.318 797.395,493.906L797.395,493.908C841.002,530.63 876.66,576.477 901.417,628.5L901.417,628.5C926.158,680.506 940,738.649 940,800C940,839.208 934.347,877.106 923.816,912.907L788.498,876.649C795.974,852.42 800,826.676 800,800C800,787.473 799.112,775.151 797.395,763.094L797.396,763.094L797.388,763.039C797.336,762.674 797.283,762.309 797.226,761.925L797.222,761.895L797.211,761.82L797.124,761.234L797.061,760.815L797.043,760.699L797.032,760.624C796.977,760.262 796.921,759.9 796.864,759.534L796.859,759.504L796.845,759.418L796.75,758.815L796.691,758.445L796.669,758.311L796.654,758.215C796.596,757.857 796.537,757.498 796.479,757.15L796.474,757.12L796.458,757.024L796.354,756.404L796.299,756.079L796.274,755.931L796.253,755.814C796.194,755.471 796.135,755.128 796.072,754.771L796.068,754.744L796.049,754.639L795.936,754.001L795.885,753.717L795.856,753.558L795.831,753.419C795.77,753.08 795.707,752.74 795.644,752.399L795.64,752.374L795.619,752.265L795.496,751.605L795.449,751.359L795.418,751.192L795.387,751.032L795.344,750.808L795.212,750.122L795.191,750.012L795.168,749.901L795.034,749.216L794.992,749.006L794.958,748.834L794.921,748.652L794.875,748.422L794.757,747.84L794.72,747.658L794.697,747.549L794.55,746.836L794.513,746.659L794.477,746.484L794.433,746.278L794.384,746.044L794.278,745.544L794.228,745.311L794.207,745.213L794.045,744.463L794.013,744.317L793.974,744.141L793.924,743.912L793.871,743.674L793.775,743.242L793.715,742.973L793.696,742.888C793.628,742.586 793.56,742.284 793.491,741.983L793.451,741.806L793.393,741.553L793.337,741.312L793.25,740.938L793.182,740.642L793.156,740.535C793.086,740.236 793.016,739.938 792.948,739.654L792.907,739.479L792.84,739.201L792.782,738.959L792.703,738.635L792.627,738.319L792.595,738.19C792.526,737.906 792.456,737.622 792.384,737.333L792.342,737.16L792.265,736.855L792.205,736.613L792.134,736.334L792.052,736.004L792.013,735.853C791.942,735.572 791.87,735.291 791.8,735.019L791.756,734.849L791.669,734.516L791.607,734.276L791.544,734.037L791.455,733.697L791.409,733.524C791.339,733.257 791.268,732.99 791.194,732.713L791.15,732.547L791.051,732.183L790.988,731.947L790.932,731.744L790.839,731.399L790.785,731.202L790.777,731.173L790.637,730.667L790.523,730.253L790.411,729.855L790.348,729.627L790.3,729.458L790.202,729.109L790.139,728.889L790.13,728.856L790.036,728.528L789.876,727.967L789.749,727.533L789.687,727.316L789.646,727.177L789.544,726.827L789.472,726.583L789.462,726.547L789.39,726.304L789.208,725.69L789.065,725.214L789.005,725.013L788.972,724.903L788.867,724.554L788.784,724.285L788.773,724.248L788.715,724.058L788.52,723.421L788.358,722.898L788.303,722.72L788.277,722.637L788.169,722.29L788.076,721.995L788.064,721.957L788.016,721.806L787.813,721.161L787.627,720.582L787.58,720.435L787.561,720.377L787.451,720.035L787.346,719.713L787.334,719.675L787.295,719.556L787.085,718.911L786.87,718.262L786.836,718.16L786.825,718.126L786.714,717.788L786.596,717.438L786.584,717.403L786.553,717.31L786.337,716.669L786.086,715.933L785.956,715.551L785.825,715.171L785.814,715.14L785.789,715.069C785.54,714.348 785.287,713.629 785.032,712.912L785.023,712.886L785.005,712.836C784.747,712.11 784.485,711.385 784.219,710.661L784.212,710.642L784.201,710.611C783.932,709.878 783.66,709.146 783.385,708.416L783.377,708.394C774.79,685.615 763.093,664.353 748.805,645.131L748.786,645.106L748.77,645.084C748.325,644.486 747.878,643.89 747.429,643.296L747.379,643.231L747.342,643.182C746.912,642.614 746.48,642.049 746.045,641.485L745.956,641.369L745.899,641.295L745.66,640.986L745.492,640.77L745.478,640.751L745.378,640.623L744.949,640.072L744.656,639.699L744.516,639.52L744.439,639.422L744.235,639.162L744.076,638.962L744.032,638.907L743.808,638.624L743.516,638.255L743.266,637.943L743.06,637.685L742.963,637.564L742.793,637.352L742.648,637.172L742.571,637.076L742.26,636.691L742.067,636.452L741.882,636.225L741.588,635.863L741.471,635.72L741.337,635.555L741.21,635.4L741.094,635.259L740.714,634.797L740.602,634.661L740.514,634.555L740.1,634.055L739.963,633.89L739.864,633.771L739.761,633.648L739.6,633.455L739.164,632.934L739.122,632.884L739.113,632.873C738.888,632.606 738.664,632.34 738.439,632.075L738.376,632.001L738.304,631.916C737.837,631.366 737.367,630.817 736.898,630.273L736.873,630.243L736.841,630.206C689.141,574.973 618.623,540 540,540C462.189,540 392.315,574.255 344.646,628.5C312.08,591.436 289.884,545.055 282.605,493.906ZM280,760.882C280.867,761.625 281.737,762.364 282.605,763.094C282.279,765.377 281.982,767.684 281.716,770L280,770L280,760.882Z" style="fill:white;stroke:black;stroke-width:60px;"/>
</svg>
