<?xml version="1.0" encoding="UTF-8" standalone="no"?>
<!DOCTYPE svg PUBLIC "-//W3C//DTD SVG 1.1//EN" "http://www.w3.org/Graphics/SVG/1.1/DTD/svg11.dtd">
<svg width="100%" height="100%" viewBox="0 0 800 800" version="1.1" xmlns="http://www.w3.org/2000/svg" xmlns:xlink="http://www.w3.org/1999/xlink" xml:space="preserve" xmlns:serif="http://www.serif.com/" style="fill-rule:evenodd;clip-rule:evenodd;stroke-linecap:round;stroke-linejoin:round;stroke-miterlimit:1.5;">
    <path d="M300,98.564C330.092,80.433 365.337,70 403,70C513.383,70 603,159.617 603,270C603,318.668 585.579,363.299 556.631,398C585.577,432.696 603,477.329 603,526C603,636.383 513.383,726 403,726C365.337,726 330.092,715.567 300,697.436L300,706L200,726L204,90L300,70L300,98.564ZM331.003,456.628C353.343,465.263 377.623,470 403,470C428.377,470 452.657,465.263 474.997,456.628C492.333,474.616 503,499.072 503,526C503,581.192 458.192,626 403,626C347.808,626 303,581.192 303,526C303,499.072 313.667,474.616 331.003,456.628ZM403,170C458.192,170 503,214.808 503,270C503,325.192 458.192,370 403,370C347.808,370 303,325.192 303,270C303,214.808 347.808,170 403,170Z" style="fill:rgb(255,216,0);stroke:white;stroke-width:80px;"/>
    <path d="M300,98.564C330.092,80.433 365.337,70 403,70C513.383,70 603,159.617 603,270C603,318.668 585.579,363.299 556.631,398C585.577,432.696 603,477.329 603,526C603,636.383 513.383,726 403,726C365.337,726 330.092,715.567 300,697.436L300,706L200,726L204,90L300,70L300,98.564ZM331.003,456.628C353.343,465.263 377.623,470 403,470C428.377,470 452.657,465.263 474.997,456.628C492.333,474.616 503,499.072 503,526C503,581.192 458.192,626 403,626C347.808,626 303,581.192 303,526C303,499.072 313.667,474.616 331.003,456.628ZM403,170C458.192,170 503,214.808 503,270C503,325.192 458.192,370 403,370C347.808,370 303,325.192 303,270C303,214.808 347.808,170 403,170Z" style="fill:rgb(255,216,0);stroke:rgb(161,136,0);stroke-width:40px;"/>
</svg>
