<?xml version="1.0" encoding="UTF-8" standalone="no"?>
<!DOCTYPE svg PUBLIC "-//W3C//DTD SVG 1.1//EN" "http://www.w3.org/Graphics/SVG/1.1/DTD/svg11.dtd">
<svg width="100%" height="100%" viewBox="0 0 1080 1080" version="1.1" xmlns="http://www.w3.org/2000/svg" xmlns:xlink="http://www.w3.org/1999/xlink" xml:space="preserve" xmlns:serif="http://www.serif.com/" style="fill-rule:evenodd;clip-rule:evenodd;stroke-linejoin:round;stroke-miterlimit:1.5;">
    <g transform="matrix(0.612245,0,0,0.652174,215.51,187.826)">
        <rect x="40" y="540" width="980" height="460"/>
    </g>
    <g transform="matrix(1.04651,0,0,1.04651,-14.6512,-14.6512)">
        <path d="M530,100C767.323,100 960,292.677 960,530C960,767.323 767.323,960 530,960C292.677,960 100,767.323 100,530C100,292.677 292.677,100 530,100ZM530,315C648.662,315 745,411.338 745,530C745,648.662 648.662,745 530,745C411.338,745 315,648.662 315,530C315,411.338 411.338,315 530,315Z" style="fill:rgb(249,179,209);stroke:rgb(162,45,41);stroke-width:57.33px;"/>
    </g>
</svg>
