<?xml version="1.0" encoding="UTF-8" standalone="no"?>
<!DOCTYPE svg PUBLIC "-//W3C//DTD SVG 1.1//EN" "http://www.w3.org/Graphics/SVG/1.1/DTD/svg11.dtd">
<svg width="100%" height="100%" viewBox="0 0 1080 1080" version="1.1" xmlns="http://www.w3.org/2000/svg" xmlns:xlink="http://www.w3.org/1999/xlink" xml:space="preserve" xmlns:serif="http://www.serif.com/" style="fill-rule:evenodd;clip-rule:evenodd;stroke-linecap:round;stroke-linejoin:round;stroke-miterlimit:1.5;">
    <g transform="matrix(1,0,0,1,0,55)">
        <path d="M797.396,763.094C727.812,821.682 637.998,857 540,857C440.766,857 349.923,820.786 280,760.882L280,153.118C349.923,93.214 440.766,57 540,57C760.766,57 940,236.234 940,457C940,518.351 926.158,576.494 901.417,628.5C876.66,576.477 841.002,530.63 797.395,493.908C799.112,481.849 800,469.527 800,457C800,313.502 683.498,197 540,197C396.502,197 280,313.502 280,457C280,600.498 396.502,717 540,717C617.819,717 687.699,682.738 735.354,628.5C767.914,665.548 790.113,711.932 797.396,763.094Z" style="fill:rgb(249,179,209);stroke:rgb(162,45,41);stroke-width:60px;"/>
    </g>
    <g transform="matrix(0.636364,0,0,0.97619,57.2727,53.4286)">
        <path d="M350,60L130,91.5L130,900L350,868.5L350,60Z" style="fill:rgb(226,133,19);stroke:rgb(162,45,41);stroke-width:72.82px;"/>
    </g>
</svg>
