<?xml version="1.0" encoding="UTF-8" standalone="no"?>
<!DOCTYPE svg PUBLIC "-//W3C//DTD SVG 1.1//EN" "http://www.w3.org/Graphics/SVG/1.1/DTD/svg11.dtd">
<svg width="100%" height="100%" viewBox="0 0 1080 1080" version="1.1" xmlns="http://www.w3.org/2000/svg" xmlns:xlink="http://www.w3.org/1999/xlink" xml:space="preserve" xmlns:serif="http://www.serif.com/" style="fill-rule:evenodd;clip-rule:evenodd;stroke-linejoin:round;stroke-miterlimit:1.5;">
    <g transform="matrix(1.04651,0,0,1.04651,-14.6512,-14.6512)">
        <path d="M530,100C767.323,100 960,292.677 960,530C960,767.323 767.323,960 530,960C292.677,960 100,767.323 100,530C100,292.677 292.677,100 530,100ZM530,315C648.662,315 745,411.338 745,530C745,648.662 648.662,745 530,745C411.338,745 315,648.662 315,530C315,411.338 411.338,315 530,315Z" style="fill:rgb(255,0,211);"/>
    </g>
    <path d="M130,350C140.293,348.224 134.077,351.175 137.623,351.33C230.893,355.472 315.205,408.087 359.911,490.048C360,490 360,490 360,490C469.142,690.093 675.474,673.488 770,650C929.851,610.279 980,420 980,420C991,816 768.9,980 545,980C326.524,980 -21,769 130,350Z"/>
    <path d="M337.502,456.377C345.036,466.354 352.542,477.526 360,490C465.078,665.749 635.978,673.81 738.161,656.602C698.829,721.518 627.009,765 545,765C420.819,765 320,665.301 320,542.5C320,511.972 326.231,482.871 337.502,456.377Z" style="fill:rgb(255,0,211);"/>
    <g transform="matrix(1.04651,0,0,1.04651,-14.6512,-14.6512)">
        <path d="M530,100C767.323,100 960,292.677 960,530C960,767.323 767.323,960 530,960C292.677,960 100,767.323 100,530C100,292.677 292.677,100 530,100ZM530,315C648.662,315 745,411.338 745,530C745,648.662 648.662,745 530,745C411.338,745 315,648.662 315,530C315,411.338 411.338,315 530,315Z" style="fill:none;stroke:black;stroke-width:57.33px;"/>
    </g>
</svg>
