<?xml version="1.0" encoding="UTF-8" standalone="no"?>
<!DOCTYPE svg PUBLIC "-//W3C//DTD SVG 1.1//EN" "http://www.w3.org/Graphics/SVG/1.1/DTD/svg11.dtd">
<svg width="100%" height="100%" viewBox="0 0 1080 1080" version="1.1" xmlns="http://www.w3.org/2000/svg" xmlns:xlink="http://www.w3.org/1999/xlink" xml:space="preserve" xmlns:serif="http://www.serif.com/" style="fill-rule:evenodd;clip-rule:evenodd;stroke-linecap:round;stroke-linejoin:round;stroke-miterlimit:1.5;">
    <g transform="matrix(1,0,0,1,0,55)">
        <path d="M797.396,763.094C727.812,821.682 637.998,857 540,857C440.766,857 349.923,820.786 280,760.882L280,153.118C349.923,93.214 440.766,57 540,57C760.766,57 940,236.234 940,457C940,518.351 926.158,576.494 901.417,628.5C876.66,576.477 841.002,530.63 797.395,493.908C799.112,481.849 800,469.527 800,457C800,313.502 683.498,197 540,197C396.502,197 280,313.502 280,457C280,600.498 396.502,717 540,717C617.819,717 687.699,682.738 735.354,628.5C767.914,665.548 790.113,711.932 797.396,763.094Z" style="fill:rgb(226,133,19);stroke:rgb(162,45,41);stroke-width:60px;"/>
    </g>
    <g transform="matrix(0.636364,0,0,0.97619,57.2727,53.4286)">
        <path d="M350,60L130,91.5L130,900L350,868.5L350,60Z" style="fill:rgb(226,133,19);stroke:rgb(162,45,41);stroke-width:72.82px;"/>
    </g>
    <g transform="matrix(1,0,0,1,0,55)">
        <path d="M282.605,493.906C352.177,435.322 441.996,400 540,400C637.998,400 727.812,435.318 797.395,493.906L797.395,493.908C841.002,530.63 876.66,576.477 901.417,628.5L901.417,628.5C926.158,680.506 940,738.649 940,800C940,839.208 934.347,877.106 923.816,912.907L788.498,876.649C795.974,852.42 800,826.676 800,800C800,787.473 799.112,775.151 797.395,763.094L797.211,761.82L797.032,760.624L796.845,759.418L796.654,758.215L796.458,757.024L796.253,755.814L796.049,754.639L795.831,753.419L795.619,752.265L795.344,750.808L794.958,748.834L794.697,747.549L794.384,746.044L793.974,744.141L793.696,742.888L793.337,741.312L793.156,740.535L792.782,738.959L792.595,738.19L792.205,736.613L792.013,735.853L791.455,733.697L791.15,732.547L790.777,731.173L790.202,729.109L789.876,727.967L789.39,726.304L788.867,724.554L788.52,723.421L788.016,721.806L787.451,720.035L787.085,718.911L786.714,717.788L786.337,716.669L785.956,715.551L785.789,715.069C785.54,714.348 785.287,713.629 785.032,712.912L785.005,712.836C784.747,712.11 784.485,711.385 784.219,710.661L784.201,710.611C783.932,709.878 783.66,709.146 783.385,708.416L783.377,708.394C774.79,685.615 763.093,664.353 748.805,645.131L748.77,645.084C748.325,644.486 747.878,643.89 747.429,643.296L747.342,643.182C746.912,642.614 746.48,642.049 746.045,641.485L744.949,640.072L744.032,638.907L742.793,637.352L741.337,635.555L740.514,634.555L739.6,633.455L739.113,632.873L738.304,631.916C737.837,631.366 737.367,630.817 736.898,630.273L736.841,630.206C689.141,574.973 618.623,540 540,540C462.189,540 392.315,574.255 344.646,628.5C312.08,591.436 289.884,545.055 282.605,493.906Z" style="fill:rgb(249,179,209);stroke:rgb(162,45,41);stroke-width:60px;"/>
    </g>
</svg>
